HIERARCHY
ROOT Hips
{
    OFFSET   0.000000   0.000000   0.000000
    CHANNELS 6 Xposition Yposition Zposition Zrotation Xrotation Yrotation
    JOINT Chest
    {
        OFFSET   0.000000   8.007230   0.000000
        CHANNELS 3 Zrotation Xrotation Yrotation
        JOINT Chest2
        {
            OFFSET   0.000000  22.077100   0.000000
            CHANNELS 3 Zrotation Xrotation Yrotation
            JOINT Neck
            {
                OFFSET   0.000000  23.254800  -0.000021
                CHANNELS 3 Zrotation Xrotation Yrotation
                JOINT Head
                {
                    OFFSET   0.000000  14.370000   1.956610
                    CHANNELS 3 Zrotation Xrotation Yrotation
                    End Site
                    {
                        OFFSET   0.000000  19.566000   0.000000
                    }
                }
            }
            JOINT LeftCollar
            {
                OFFSET   3.911900  19.017000  -0.467063
                CHANNELS 3 Zrotation Xrotation Yrotation
                JOINT LeftShoulder
                {
                    OFFSET  10.383700   0.000000   0.000000
                    CHANNELS 3 Zrotation Xrotation Yrotation
                    JOINT LeftElbow
                    {
                        OFFSET  26.662100   0.001529   0.000325
                        CHANNELS 3 Zrotation Xrotation Yrotation
                        JOINT LeftWrist
                        {
                            OFFSET  28.869000  -0.000011  -0.000096
                            CHANNELS 3 Zrotation Xrotation Yrotation
                            JOINT LeftFinger0
                            {
                                OFFSET   2.044650  -2.323460   3.252850
                                CHANNELS 3 Zrotation Xrotation Yrotation
                                JOINT LeftFinger01
                                {
                                    OFFSET   3.088130   0.000000   0.000000
                                    CHANNELS 3 Zrotation Xrotation Yrotation
                                    JOINT LeftFinger02
                                    {
                                        OFFSET   2.639460   0.000000   0.000000
                                        CHANNELS 3 Zrotation Xrotation Yrotation
                                        End Site
                                        {
                                            OFFSET   2.582190   0.000000   0.000000
                                        }
                                    }
                                }
                            }
                            JOINT LeftFinger1
                            {
                                OFFSET   8.364480   0.000000   3.252850
                                CHANNELS 3 Zrotation Xrotation Yrotation
                                JOINT LeftFinger11
                                {
                                    OFFSET   4.646930   0.000000   0.000000
                                    CHANNELS 3 Zrotation Xrotation Yrotation
                                    JOINT LeftFinger12
                                    {
                                        OFFSET   2.323460   0.000000   0.000000
                                        CHANNELS 3 Zrotation Xrotation Yrotation
                                        End Site
                                        {
                                            OFFSET   2.273050   0.000000   0.000000
                                        }
                                    }
                                }
                            }
                            JOINT LeftFinger2
                            {
                                OFFSET   8.364480   0.000016   1.078090
                                CHANNELS 3 Zrotation Xrotation Yrotation
                                JOINT LeftFinger21
                                {
                                    OFFSET   5.111620   0.000000   0.000000
                                    CHANNELS 3 Zrotation Xrotation Yrotation
                                    JOINT LeftFinger22
                                    {
                                        OFFSET   2.788160   0.000017   0.000000
                                        CHANNELS 3 Zrotation Xrotation Yrotation
                                        End Site
                                        {
                                            OFFSET   2.727660   0.000000   0.000000
                                        }
                                    }
                                }
                            }
                            JOINT LeftFinger3
                            {
                                OFFSET   7.899780   0.000015  -1.078090
                                CHANNELS 3 Zrotation Xrotation Yrotation
                                JOINT LeftFinger31
                                {
                                    OFFSET   4.646920   0.000000   0.000000
                                    CHANNELS 3 Zrotation Xrotation Yrotation
                                    JOINT LeftFinger32
                                    {
                                        OFFSET   2.323470   0.000000   0.000000
                                        CHANNELS 3 Zrotation Xrotation Yrotation
                                        End Site
                                        {
                                            OFFSET   2.273050   0.000000   0.000000
                                        }
                                    }
                                }
                            }
                            JOINT LeftFinger4
                            {
                                OFFSET   7.435090   0.000000  -3.252850
                                CHANNELS 3 Zrotation Xrotation Yrotation
                                JOINT LeftFinger41
                                {
                                    OFFSET   3.717550   0.000000   0.000000
                                    CHANNELS 3 Zrotation Xrotation Yrotation
                                    JOINT LeftFinger42
                                    {
                                        OFFSET   1.858760   0.000000   0.000000
                                        CHANNELS 3 Zrotation Xrotation Yrotation
                                        End Site
                                        {
                                            OFFSET   1.818440   0.000000   0.000000
                                        }
                                    }
                                }
                            }
                        }
                    }
                }
            }
            JOINT RightCollar
            {
                OFFSET  -3.911900  19.017000  -0.467062
                CHANNELS 3 Zrotation Xrotation Yrotation
                JOINT RightShoulder
                {
                    OFFSET -10.383700   0.000015   0.000000
                    CHANNELS 3 Zrotation Xrotation Yrotation
                    JOINT RightElbow
                    {
                        OFFSET -26.662100   0.001341   0.000385
                        CHANNELS 3 Zrotation Xrotation Yrotation
                        JOINT RightWrist
                        {
                            OFFSET -28.869000   0.000025  -0.000080
                            CHANNELS 3 Zrotation Xrotation Yrotation
                            JOINT RightFinger0
                            {
                                OFFSET  -2.044650  -2.323490   3.252850
                                CHANNELS 3 Zrotation Xrotation Yrotation
                                JOINT RightFinger01
                                {
                                    OFFSET  -3.088130   0.000000   0.000000
                                    CHANNELS 3 Zrotation Xrotation Yrotation
                                    JOINT RightFinger02
                                    {
                                        OFFSET  -2.639460   0.000000   0.000000
                                        CHANNELS 3 Zrotation Xrotation Yrotation
                                        End Site
                                        {
                                            OFFSET  -2.582190   0.000000   0.000000
                                        }
                                    }
                                }
                            }
                            JOINT RightFinger1
                            {
                                OFFSET  -8.364480   0.000000   3.252850
                                CHANNELS 3 Zrotation Xrotation Yrotation
                                JOINT RightFinger11
                                {
                                    OFFSET  -4.646930   0.000000   0.000000
                                    CHANNELS 3 Zrotation Xrotation Yrotation
                                    JOINT RightFinger12
                                    {
                                        OFFSET  -2.323470   0.000000   0.000000
                                        CHANNELS 3 Zrotation Xrotation Yrotation
                                        End Site
                                        {
                                            OFFSET  -2.273050   0.000000   0.000000
                                        }
                                    }
                                }
                            }
                            JOINT RightFinger2
                            {
                                OFFSET  -8.364480   0.000000   1.078090
                                CHANNELS 3 Zrotation Xrotation Yrotation
                                JOINT RightFinger21
                                {
                                    OFFSET  -5.111610   0.000000   0.000000
                                    CHANNELS 3 Zrotation Xrotation Yrotation
                                    JOINT RightFinger22
                                    {
                                        OFFSET  -2.788160   0.000000   0.000000
                                        CHANNELS 3 Zrotation Xrotation Yrotation
                                        End Site
                                        {
                                            OFFSET  -2.727660   0.000000   0.000000
                                        }
                                    }
                                }
                            }
                            JOINT RightFinger3
                            {
                                OFFSET  -7.899780   0.000000  -1.078090
                                CHANNELS 3 Zrotation Xrotation Yrotation
                                JOINT RightFinger31
                                {
                                    OFFSET  -4.646920   0.000000   0.000000
                                    CHANNELS 3 Zrotation Xrotation Yrotation
                                    JOINT RightFinger32
                                    {
                                        OFFSET  -2.323470   0.000000   0.000000
                                        CHANNELS 3 Zrotation Xrotation Yrotation
                                        End Site
                                        {
                                            OFFSET  -2.273050   0.000000   0.000000
                                        }
                                    }
                                }
                            }
                            JOINT RightFinger4
                            {
                                OFFSET  -7.435090   0.000000  -3.252850
                                CHANNELS 3 Zrotation Xrotation Yrotation
                                JOINT RightFinger41
                                {
                                    OFFSET  -3.717550   0.000000   0.000000
                                    CHANNELS 3 Zrotation Xrotation Yrotation
                                    JOINT RightFinger42
                                    {
                                        OFFSET  -1.858770   0.000000   0.000000
                                        CHANNELS 3 Zrotation Xrotation Yrotation
                                        End Site
                                        {
                                            OFFSET  -1.818440   0.000000   0.000000
                                        }
                                    }
                                }
                            }
                        }
                    }
                }
            }
        }
    }
    JOINT LeftHip
    {
        OFFSET   9.783010   0.000000   0.000000
        CHANNELS 3 Zrotation Xrotation Yrotation
        JOINT LeftKnee
        {
            OFFSET   0.000070 -41.789100   0.000028
            CHANNELS 3 Zrotation Xrotation Yrotation
            JOINT LeftAnkle
            {
                OFFSET   0.000087 -41.133200  -0.000100
                CHANNELS 3 Zrotation Xrotation Yrotation
                JOINT LeftToe
                {
                    OFFSET   0.000000  -6.358960  14.674500
                    CHANNELS 3 Zrotation Xrotation Yrotation
                    End Site
                    {
                        OFFSET   0.000000   0.000000   3.913200
                    }
                }
            }
        }
    }
    JOINT RightHip
    {
        OFFSET  -9.783020   0.000000   0.000000
        CHANNELS 3 Zrotation Xrotation Yrotation
        JOINT RightKnee
        {
            OFFSET   0.000044 -41.789100  -0.000870
            CHANNELS 3 Zrotation Xrotation Yrotation
            JOINT RightAnkle
            {
                OFFSET  -0.000090 -41.133200  -0.000245
                CHANNELS 3 Zrotation Xrotation Yrotation
                JOINT RightToe
                {
                    OFFSET   0.000000  -6.358960  14.674500
                    CHANNELS 3 Zrotation Xrotation Yrotation
                    End Site
                    {
                        OFFSET   0.000000   0.000000   3.913200
                    }
                }
            }
        }
    }
}
MOTION
Frames: 6
Frame Time:   0.016667
 -0.202209  89.557800   0.519788  -3.342600 -16.864100   0.576101   0.632521   9.217630   2.961740   0.789896  18.455600   5.936740  -4.944500   7.238910   0.618169  -8.484610  14.349400  20.624000  -2.911200  -2.890990  -3.838120 -18.219600  13.626800 -61.639100  37.713700   9.094870 -84.246200   9.077390  22.109900 -11.096700  36.479000  37.755000 -69.463700 -39.151400  -0.004605   0.001797 -15.144400   0.000099   0.002380 -33.625200  10.136200 -14.822600 -28.593100  -0.003527   0.009309 -20.015100  -0.003861   0.005698 -28.527300   3.821420  -6.990020 -40.579200   0.001085   0.001174 -27.025800   0.000000   0.004186 -28.320600   3.796110  -7.003740 -36.778200  -0.011350   0.001498 -24.494300  -0.000058   0.011807 -31.178000   1.037100  -1.713280 -46.790300  -0.009024   0.001596 -31.162400  -0.009672  -0.002354   6.115700  -2.350190   7.292680  35.532900  19.532700  44.777500 -34.384900 -13.960600  79.694300  -7.013640  -0.083913  26.447500 -59.040400  54.333300 108.293000  -9.323940  -0.002447  -0.000303  -9.661970   0.003838   0.000754  30.500400  10.615000  17.363700  26.284700   0.001295   0.004301  18.399300   0.004968   0.001098  30.425800   4.965020   8.385390  46.184900  -0.000661   0.001093  30.759100  -0.004501   0.000906  28.478800   4.084610   7.480550  40.149100   0.000000   0.004083  26.739300  -0.002242   0.003263  28.941700   1.418030   2.561830  43.460100   0.003190  -0.001134  28.944500   0.001243  -0.003745   4.060660  18.520400   3.235120   1.496510   0.115706   4.617500  -2.130070  -2.856930   1.912990  -0.000000   0.000000   0.000000   4.092300  18.618000  -7.797360  -0.062228   1.390720 -11.126000   0.355091  -3.971290   1.669220  -0.000000   0.000000   0.000000
 -0.211751  89.557400   0.523662  -3.354150 -16.849100   0.532011   0.641098   9.204150   2.971200   0.806538  18.429100   5.954270  -4.928710   7.250580   0.618476  -8.459730  14.374300  20.591900  -2.924170  -2.872090  -3.858110 -18.171000  13.620500 -61.688200  37.754600   9.100350 -84.212600   9.117170  22.096500 -11.162700  36.453200  37.697500 -69.342700 -39.158300  -0.004616   0.001822 -15.155700   0.000114   0.002417 -33.596500  10.101900 -14.791600 -28.563900  -0.003582   0.009341 -19.994600  -0.003919   0.005707 -28.528100   3.799230  -6.950040 -40.522700   0.001044   0.001226 -26.988100  -0.000030   0.004220 -28.319100   3.773400  -6.964050 -36.729600  -0.011357   0.001554 -24.462000  -0.000108   0.011898 -31.158200   1.041440  -1.720670 -46.760900  -0.009195   0.001622 -31.142800  -0.009845  -0.002332   6.113190  -2.322470   7.299480  35.383700  19.545100  44.928200 -34.335600 -14.031600  79.579600  -6.500780   0.031791  26.510600 -59.040400  54.333300 108.293000  -7.836140  -0.001914  -0.000290  -8.918070   0.003764   0.000756  30.345600  10.592800  17.431100  26.160500   0.001155   0.004210  18.312400   0.005079   0.001118  30.473400   4.964990   8.367820  46.255300  -0.000722   0.001322  30.806000  -0.004822   0.001064  28.486100   4.071620   7.454540  40.317000  -0.000097   0.004095  26.851100  -0.002462   0.003261  28.873300   1.428600   2.588290  43.358400   0.003471  -0.001040  28.876700   0.001240  -0.003596   4.064030  18.516000   3.237930   1.495590   0.122063   4.636770  -2.132790  -2.874840   1.933540  -0.000000   0.000000  -0.000000   4.095570  18.616600  -7.793020  -0.062859   1.364840 -11.135200   0.357395  -3.956270   1.718100   0.000000   0.000000   0.000000
 -0.221401  89.556900   0.529780  -3.363840 -16.831300   0.495496   0.648695   9.188960   2.976660   0.821908  18.399200   5.964060  -4.911450   7.258580   0.618742  -8.430430  14.392600  20.544900  -2.940960  -2.851590  -3.889180 -18.146400  13.614800 -61.723400  37.792800   9.100810 -84.187100   9.169580  22.079200 -11.220300  36.441400  37.615900 -69.173900 -39.165200  -0.004624   0.001848 -15.170600   0.000129   0.002456 -33.575900  10.057200 -14.739200 -28.538100  -0.003638   0.009374 -19.976600  -0.003978   0.005714 -28.531000   3.766910  -6.890330 -40.487300   0.001000   0.001275 -26.964500  -0.000060   0.004255 -28.321300   3.741600  -6.904060 -36.705500  -0.011362   0.001609 -24.445900  -0.000167   0.011988 -31.149100   1.043650  -1.724100 -46.747300  -0.009367   0.001648 -31.133700  -0.010019  -0.002309   6.108310  -2.279960   7.308350  35.269300  19.538900  45.049200 -34.283100 -14.074500  79.507000  -6.208170   0.081151  26.554900 -59.040400  54.333300 108.293000  -6.560610  -0.001542  -0.000288  -8.280310   0.003692   0.000757  30.171600  10.566900  17.506800  26.020900   0.001020   0.004116  18.214600   0.005190   0.001136  30.503400   4.964800   8.356790  46.299400  -0.000781   0.001553  30.835400  -0.005141   0.001219  28.490500   4.065340   7.441930  40.398300  -0.000186   0.004102  26.905200  -0.002685   0.003259  28.737900   1.449340   2.640720  43.157000   0.003753  -0.000955  28.742600   0.001237  -0.003451   4.068590  18.511500   3.245460   1.493150   0.128422   4.645820  -2.135760  -2.887000   1.950650  -0.000000   0.000000  -0.000000   4.099340  18.614000  -7.790660  -0.063241   1.337790 -11.138900   0.359292  -3.941710   1.756480  -0.000000   0.000000   0.000000
 -0.229959  89.556500   0.536671  -3.370110 -16.810000   0.470657   0.654840   9.172660   2.973100   0.835276  18.366900   5.955710  -4.897170   7.262130   0.619002  -8.406170  14.401500  20.503700  -2.956390  -2.837470  -3.913440 -18.144500  13.617100 -61.736000  37.791700   9.073840 -84.152100   9.206160  22.023800 -11.245500  36.498800  37.625200 -69.064700 -39.160800  -0.004625   0.001860 -15.174700   0.000137   0.002489 -33.547800  10.005300 -14.682300 -28.505500  -0.003694   0.009403 -19.953800  -0.004043   0.005719 -28.533800   3.737260  -6.835960 -40.462400   0.000956   0.001318 -26.948000  -0.000098   0.004291 -28.323300   3.712040  -6.849640 -36.686100  -0.011366   0.001656 -24.432900  -0.000228   0.012081 -31.127900   1.046950  -1.732010 -46.715600  -0.009527   0.001671 -31.112600  -0.010183  -0.002285   6.101370  -2.216520   7.333110  35.216800  19.501800  45.123400 -34.243000 -14.058600  79.482700  -6.143170   0.064806  26.621800 -59.040400  54.333300 108.293000  -5.592560  -0.001154  -0.000309  -7.796290   0.003622   0.000753  29.819200  10.514000  17.660500  25.737800   0.000888   0.004020  18.016400   0.005301   0.001152  30.469100   4.964240   8.369460  46.248700  -0.000836   0.001786  30.801600  -0.005460   0.001370  28.490500   4.070270   7.450110  40.345400  -0.000290   0.004102  26.869900  -0.002888   0.003245  28.568200   1.474930   2.706520  42.904700   0.004035  -0.000883  28.574500   0.001234  -0.003307   4.068170  18.524600   3.261850   1.490510   0.089621   4.642170  -2.137500  -2.878700   1.962850  -0.000000   0.000000   0.000000   4.098690  18.605000  -7.795730  -0.059207   1.317510 -11.132700   0.361198  -3.932220   1.784360   0.000000   0.000000  -0.000000
 -0.237061  89.556100   0.545639  -3.373900 -16.788700   0.453153   0.659166   9.156040   2.963120   0.847317  18.333900   5.934170  -4.884460   7.264710   0.619269  -8.385170  14.408000  20.474200  -2.964550  -2.823160  -3.926620 -18.161200  13.618800 -61.739800  37.777700   9.042620 -84.122700   9.240810  21.954400 -11.249000  36.543200  37.656900 -69.004700 -39.149500  -0.004626   0.001865 -15.175300   0.000144   0.002521 -33.531400   9.973680 -14.647400 -28.486200  -0.003751   0.009433 -19.940300  -0.004109   0.005726 -28.535600   3.720250  -6.804760 -40.453300   0.000910   0.001361 -26.941900  -0.000141   0.004328 -28.324800   3.695110  -6.818390 -36.679000  -0.011373   0.001701 -24.428200  -0.000293   0.012174 -31.114700   1.048790  -1.736960 -46.695800  -0.009690   0.001694 -31.099300  -0.010346  -0.002262   6.092270  -2.135130   7.365630  35.194800  19.447900  45.181200 -34.225300 -14.042100  79.460200  -6.126930   0.048477  26.698300 -59.040400  54.333300 108.293000  -4.803400  -0.000781  -0.000345  -7.401710   0.003547   0.000741  29.465300  10.460400  17.815000  25.453100   0.000760   0.003922  17.817100   0.005414   0.001166  30.434800   4.963610   8.382130  46.197900  -0.000887   0.002018  30.767800  -0.005779   0.001518  28.490100   4.075200   7.458290  40.292500  -0.000394   0.004101  26.834700  -0.003086   0.003224  28.405600   1.499320   2.769650  42.662900   0.004318  -0.000820  28.413500   0.001229  -0.003170   4.067440  18.537700   3.278300   1.489400   0.050819   4.636500  -2.140040  -2.870390   1.972080  -0.000000   0.000000  -0.000000   4.095510  18.598300  -7.800900  -0.053279   1.298960 -11.120400   0.362071  -3.924120   1.796660   0.000000   0.000000  -0.000000
 -0.241426  89.555600   0.558255  -3.375040 -16.770800   0.441532   0.662655   9.140390   2.947030   0.858767  18.302700   5.900490  -4.871210   7.269610   0.619552  -8.365870  14.418900  20.466500  -2.959510  -2.802770  -3.921180 -18.205100  13.608400 -61.738400  37.763900   9.019140 -84.119400   9.293820  21.882800 -11.242300  36.543400  37.690400 -69.127100 -39.129500  -0.004644   0.001866 -15.152800   0.000159   0.002552 -33.579700  10.022800 -14.693200 -28.534500  -0.003808   0.009466 -19.974100  -0.004173   0.005740 -28.535700   3.747910  -6.854720 -40.551500   0.000856   0.001409 -27.007300  -0.000191   0.004364 -28.327000   3.723050  -6.868210 -36.752900  -0.011383   0.001754 -24.477500  -0.000362   0.012268 -31.143700   1.043440  -1.726150 -46.739000  -0.009868   0.001719 -31.128100  -0.010511  -0.002241   6.080820  -2.035530   7.402040  35.198400  19.370500  45.234500 -34.240400 -14.001700  79.448800  -6.176240   0.066952  26.793900 -59.040400  54.333300 108.293000  -4.090720  -0.000381  -0.000374  -7.045370   0.003450   0.000723  29.228400  10.423800  17.918600  25.262400   0.000634   0.003821  17.683600   0.005530   0.001178  30.437200   4.963110   8.381220  46.201400  -0.000937   0.002248  30.770100  -0.006095   0.001663  28.491300   4.074790   7.457860  40.295200  -0.000493   0.004097  26.836500  -0.003286   0.003201  28.317400   1.512430   2.804070  42.531700   0.004603  -0.000764  28.326100   0.001220  -0.003041   4.070920  18.514600   3.285600   1.488360   0.086617   4.632070  -2.146290  -2.898660   1.979120  -0.000000   0.000000  -0.000000   4.087070  18.600900  -7.800930  -0.046296   1.275070 -11.105900   0.361510  -3.912540   1.797060  -0.000000   0.000000   0.000000
